<svg width="69" height="36" viewBox="0 0 69 36" fill="none" xmlns="http://www.w3.org/2000/svg">
<path fill-rule="evenodd" clip-rule="evenodd" d="M48.3673 24.3045L47.4189 26.634L43.6824 20.3266L32.4851 17.9464L29.2588 20.7402C29.0581 20.9448 28.7959 21.0794 28.5115 21.124C28.2017 21.0651 27.913 20.9266 27.6742 20.7223L25.0452 18.8569L20.8975 26.637L19.8081 24.4413L32.308 0.853884C32.308 0.853884 32.6261 0 33.3704 0C34.1147 0 34.4568 0.865785 34.4568 0.865785L48.3673 24.3045Z" fill="#23ABE3"/>
<path fill-rule="evenodd" clip-rule="evenodd" d="M22.2359 32.4927C22.5846 32.4795 22.902 32.2896 23.0763 31.9899C23.2328 31.7169 23.2538 31.3877 23.1333 31.0973L11.6508 7.64671C11.4913 7.31557 11.1437 7.11492 10.7744 7.14093C10.4073 7.11743 10.0628 7.31769 9.90411 7.64671L0.273345 30.9426C0.156275 31.2932 0.185451 31.6756 0.354376 32.0047C0.534256 32.2801 0.832076 32.4579 1.16169 32.4867H10.4653V34.736C10.4719 35.2895 10.9273 35.7343 11.4857 35.7327C12.4761 35.7327 12.4761 34.727 12.4761 34.727V32.4897L22.2359 32.4927ZM10.8615 10.5951L20.6003 30.4785H2.63827L10.8615 10.5951Z" fill="#23ABE3"/>
<path fill-rule="evenodd" clip-rule="evenodd" d="M67.5264 32.4919C67.8622 32.4783 68.1698 32.3023 68.3496 32.0208C68.5293 31.7393 68.5581 31.3883 68.4268 31.0817L56.9503 7.64595C56.7904 7.31373 56.4412 7.11288 56.071 7.14016C55.706 7.11509 55.362 7.31148 55.2006 7.63702L45.5729 30.9418C45.4542 31.2919 45.4823 31.6746 45.6509 32.004C45.8311 32.279 46.1287 32.4567 46.4582 32.4859H55.7619V34.7352C55.7684 35.2887 56.2238 35.7336 56.7822 35.7319C57.7756 35.7319 57.7756 34.7263 57.7756 34.7263V32.4889L67.5264 32.4919ZM56.152 10.5944L65.8878 30.4777H47.9378L56.161 10.5944H56.152Z" fill="#23ABE3"/>
</svg>
